<?xml version="1.0" standalone="no"?>
<!DOCTYPE svg PUBLIC "-//W3C//DTD SVG 20010904//EN"
 "http://www.w3.org/TR/2001/REC-SVG-20010904/DTD/svg10.dtd">
<svg version="1.0" xmlns="http://www.w3.org/2000/svg"
 width="1274.000000pt" height="1280.000000pt" viewBox="0 0 1274.000000 1280.000000"
 preserveAspectRatio="xMidYMid meet">
<g transform="translate(0.000000,1280.000000) scale(0.100000,-0.100000)"
fill="#000000" stroke="none">
<path d="M6885 12794 c-229 -34 -408 -120 -587 -281 -144 -130 -325 -201 -539
-210 -188 -8 -365 33 -505 118 -90 55 -201 98 -314 121 -120 25 -314 20 -432
-11 -321 -84 -570 -305 -688 -611 -58 -150 -268 -349 -447 -424 -144 -60 -348
-93 -453 -74 -81 15 -280 4 -374 -21 -356 -94 -623 -362 -717 -719 -14 -53
-23 -131 -29 -247 -8 -176 -20 -236 -67 -354 -55 -139 -148 -263 -267 -359
-101 -81 -183 -126 -314 -171 -130 -45 -216 -91 -317 -171 -349 -278 -465
-794 -269 -1195 54 -109 77 -241 71 -400 -6 -152 -25 -225 -92 -362 -56 -114
-132 -216 -205 -276 -210 -174 -340 -462 -340 -752 0 -287 116 -541 341 -747
208 -190 309 -433 296 -708 -7 -135 -32 -246 -80 -350 -65 -143 -82 -225 -81
-405 1 -177 14 -243 75 -391 64 -155 205 -329 343 -423 73 -50 192 -107 286
-135 234 -71 441 -261 541 -498 52 -121 70 -210 79 -383 9 -185 31 -287 90
-411 123 -264 341 -453 626 -541 88 -27 93 -27 364 -29 247 -1 283 -3 352 -22
91 -25 207 -77 275 -123 131 -89 271 -256 329 -391 94 -219 291 -421 500 -514
153 -68 347 -99 509 -83 126 13 229 43 342 101 54 28 123 63 153 78 108 54
209 74 370 74 178 -1 254 -19 417 -100 83 -41 132 -73 187 -124 132 -119 272
-197 436 -242 74 -20 107 -23 250 -22 182 1 250 14 391 74 158 67 330 209 423
348 130 195 379 337 631 361 135 12 275 -2 384 -38 125 -42 221 -55 363 -48
152 6 250 31 383 95 291 142 480 385 545 702 37 180 121 331 256 461 155 148
325 227 546 255 256 32 450 125 614 295 243 254 337 596 253 929 -41 165 -12
386 74 565 78 162 219 313 371 400 243 138 406 353 475 626 71 282 8 597 -165
824 -115 152 -176 333 -177 530 -1 204 61 399 177 555 64 85 139 244 166 350
68 274 10 583 -155 815 -72 101 -208 223 -320 285 -225 126 -382 341 -441 605
-25 112 -24 286 1 390 28 114 27 338 -3 447 -86 317 -300 563 -588 679 -101
40 -175 58 -288 69 -195 19 -392 110 -532 246 -122 119 -240 324 -259 449 -19
134 -100 318 -188 432 -129 167 -313 293 -512 351 -207 60 -395 54 -615 -19
-165 -55 -379 -52 -552 7 -171 58 -353 189 -441 318 -177 261 -466 419 -787
430 -63 3 -128 2 -145 0z"/>
</g>
</svg>
